<svg width="65" height="65" viewBox="0 0 65 65" fill="none" xmlns="http://www.w3.org/2000/svg">
<path d="M32.9879 64.0079C27.1962 64.0079 21.8421 62.5809 16.9254 59.7267C12.0087 56.8725 8.12333 52.9871 5.26917 48.0704C2.415 43.1538 0.987915 37.7996 0.987915 32.0079C0.987915 26.2163 2.415 20.8621 5.26917 15.9454C8.12333 11.0288 12.0087 7.14335 16.9254 4.28918C21.8421 1.43502 27.1962 0.00793457 32.9879 0.00793457C38.7796 0.00793457 44.1337 1.43502 49.0504 4.28918C53.9671 7.14335 57.8525 11.0288 60.7067 15.9454C63.5608 20.8621 64.9879 26.2163 64.9879 32.0079C64.9879 37.7996 63.5608 43.1538 60.7067 48.0704C57.8525 52.9871 53.9671 56.8725 49.0504 59.7267C44.1337 62.5809 38.7796 64.0079 32.9879 64.0079ZM52.4254 21.3204L49.6754 18.5704C49.2587 18.1954 48.79 18.0079 48.2692 18.0079C47.7483 18.0079 47.2796 18.1954 46.8629 18.5704L27.9879 37.4454L19.0504 28.5704C18.6754 28.1954 18.2171 28.0079 17.6754 28.0079C17.1337 28.0079 16.6754 28.1954 16.3004 28.5704L13.5504 31.3204C13.1754 31.6954 12.9879 32.1538 12.9879 32.6954C12.9879 33.2371 13.1754 33.7163 13.5504 34.1329L23.0504 43.5704C23.0921 44.0288 23.2587 44.4038 23.5504 44.6954L26.3004 47.4454C26.7587 47.9038 27.3212 48.0704 27.9879 47.9454C28.6546 48.0704 29.2171 47.9038 29.6754 47.4454L32.4254 44.6954C32.6754 44.4038 32.8421 44.0288 32.9254 43.5704L52.4254 24.0704C52.8004 23.6954 52.9879 23.2371 52.9879 22.6954C52.9879 22.1538 52.8004 21.6954 52.4254 21.3204Z" fill="white"/>
</svg>
