<svg width="16" height="16" viewBox="0 0 16 16" fill="none" xmlns="http://www.w3.org/2000/svg">
<path d="M15.4979 3.66677L12.5021 0.783327C12.1806 0.473891 11.7446 0.300051 11.2899 0.300049H1.71429C0.7675 0.300049 0 1.03877 0 1.95005V14.05C0 14.9613 0.7675 15.7 1.71429 15.7H14.2857C15.2325 15.7 16 14.9613 16 14.05V4.83349C16 4.39589 15.8194 3.9762 15.4979 3.66677ZM9.71429 1.95005V4.70005H5.14286V1.95005H9.71429ZM14.0714 14.05H1.92857C1.87174 14.05 1.81723 14.0283 1.77705 13.9896C1.73686 13.951 1.71429 13.8985 1.71429 13.8438V2.1563C1.71429 2.1016 1.73686 2.04914 1.77705 2.01046C1.81723 1.97178 1.87174 1.95005 1.92857 1.95005H3.42857V5.52505C3.42857 5.98069 3.81232 6.35005 4.28571 6.35005H10.5714C11.0448 6.35005 11.4286 5.98069 11.4286 5.52505V2.08349L14.223 4.7731C14.2429 4.79225 14.2586 4.81499 14.2694 4.84002C14.2802 4.86504 14.2857 4.89186 14.2857 4.91895V13.8438C14.2857 13.8985 14.2631 13.951 14.223 13.9896C14.1828 14.0283 14.1283 14.05 14.0714 14.05ZM8 7.17505C6.26704 7.17505 4.85714 8.53207 4.85714 10.2C4.85714 11.868 6.26704 13.225 8 13.225C9.73296 13.225 11.1429 11.868 11.1429 10.2C11.1429 8.53207 9.73296 7.17505 8 7.17505ZM8 11.575C7.21229 11.575 6.57143 10.9582 6.57143 10.2C6.57143 9.44187 7.21229 8.82505 8 8.82505C8.78771 8.82505 9.42857 9.44187 9.42857 10.2C9.42857 10.9582 8.78771 11.575 8 11.575Z" fill="white"/>
</svg>
