<svg width="170" height="54" viewBox="0 0 170 54" fill="none" xmlns="http://www.w3.org/2000/svg">
<path d="M85.6 21.32C84.3867 21.32 83.2467 21.1933 82.18 20.94C81.1133 20.6733 80.2333 20.3267 79.54 19.9L81.36 16.42C82.8667 17.2867 84.44 17.72 86.08 17.72C86.68 17.72 87.14 17.6467 87.46 17.5C87.78 17.3533 87.94 17.1533 87.94 16.9C87.94 16.66 87.7733 16.4667 87.44 16.32C87.12 16.1733 86.6067 16.0133 85.9 15.84C84.9667 15.6 84.1933 15.36 83.58 15.12C82.9667 14.8667 82.4267 14.4867 81.96 13.98C81.5067 13.46 81.28 12.78 81.28 11.94C81.28 10.8867 81.56 9.96667 82.12 9.18C82.6933 8.38 83.5133 7.76667 84.58 7.34C85.6467 6.9 86.9067 6.68 88.36 6.68C89.4 6.68 90.3667 6.78667 91.26 7C92.1667 7.2 92.9467 7.49333 93.6 7.88L91.9 11.32C91.3533 10.9733 90.7467 10.7133 90.08 10.54C89.4267 10.3667 88.7533 10.28 88.06 10.28C87.4067 10.28 86.9 10.3733 86.54 10.56C86.18 10.7467 86 10.9667 86 11.22C86 11.4733 86.16 11.6733 86.48 11.82C86.8133 11.9667 87.3533 12.1267 88.1 12.3C89.0067 12.5133 89.7667 12.74 90.38 12.98C91.0067 13.22 91.5467 13.5933 92 14.1C92.4533 14.6067 92.68 15.2733 92.68 16.1C92.68 17.14 92.3933 18.0533 91.82 18.84C91.2467 19.6267 90.4267 20.24 89.36 20.68C88.2933 21.1067 87.04 21.32 85.6 21.32ZM102.045 9.86C102.791 9.86 103.511 10.06 104.205 10.46C104.898 10.86 105.458 11.4467 105.885 12.22C106.325 12.98 106.545 13.88 106.545 14.92C106.545 16.0933 106.278 17.16 105.745 18.12C105.225 19.08 104.518 19.8333 103.625 20.38C102.731 20.9267 101.765 21.2 100.725 21.2C99.1112 21.2 98.0112 20.6533 97.4245 19.56L97.1445 21H92.8445L95.8045 6.16H100.325L99.4045 10.8C100.151 10.1733 101.031 9.86 102.045 9.86ZM99.9845 17.64C100.571 17.64 101.045 17.4133 101.405 16.96C101.778 16.5067 101.965 15.9 101.965 15.14C101.965 14.62 101.818 14.2067 101.525 13.9C101.245 13.58 100.851 13.42 100.345 13.42C99.7579 13.42 99.2779 13.6467 98.9045 14.1C98.5445 14.5533 98.3645 15.16 98.3645 15.92C98.3645 16.44 98.5045 16.86 98.7845 17.18C99.0779 17.4867 99.4779 17.64 99.9845 17.64ZM120.848 10.06L118.668 21H114.408L114.608 20C113.782 20.8 112.795 21.2 111.648 21.2C110.902 21.2 110.182 21 109.488 20.6C108.795 20.2 108.228 19.62 107.788 18.86C107.362 18.0867 107.148 17.18 107.148 16.14C107.148 14.9667 107.408 13.9 107.928 12.94C108.462 11.98 109.175 11.2267 110.068 10.68C110.962 10.1333 111.928 9.86 112.968 9.86C114.435 9.86 115.475 10.3133 116.088 11.22L116.328 10.06H120.848ZM111.728 15.92C111.728 16.44 111.868 16.86 112.148 17.18C112.442 17.4867 112.842 17.64 113.348 17.64C113.935 17.64 114.408 17.4133 114.768 16.96C115.142 16.5067 115.328 15.9 115.328 15.14C115.328 14.62 115.182 14.2067 114.888 13.9C114.608 13.58 114.215 13.42 113.708 13.42C113.122 13.42 112.642 13.6467 112.268 14.1C111.908 14.5533 111.728 15.16 111.728 15.92ZM134.872 10.06L133.132 18.8C132.706 20.9733 131.859 22.56 130.592 23.56C129.339 24.5733 127.692 25.08 125.652 25.08C123.412 25.08 121.606 24.6267 120.232 23.72L122.152 20.64C122.592 20.9733 123.132 21.2333 123.772 21.42C124.426 21.62 125.079 21.72 125.732 21.72C126.572 21.72 127.199 21.5467 127.612 21.2C128.039 20.8533 128.319 20.3333 128.452 19.64L128.512 19.36C127.766 20.0533 126.846 20.4 125.752 20.4C124.926 20.4 124.152 20.2133 123.432 19.84C122.712 19.4533 122.132 18.9 121.692 18.18C121.252 17.46 121.032 16.6267 121.032 15.68C121.032 14.6133 121.292 13.64 121.812 12.76C122.332 11.8667 123.039 11.16 123.932 10.64C124.839 10.12 125.832 9.86 126.912 9.86C128.632 9.86 129.746 10.48 130.252 11.72L130.572 10.06H134.872ZM125.592 15.46C125.592 15.8733 125.732 16.2133 126.012 16.48C126.306 16.7333 126.699 16.86 127.192 16.86C127.779 16.86 128.246 16.6733 128.592 16.3C128.952 15.9267 129.132 15.4333 129.132 14.82C129.132 14.4067 128.992 14.0733 128.712 13.82C128.432 13.5533 128.046 13.42 127.552 13.42C126.966 13.42 126.492 13.6067 126.132 13.98C125.772 14.3533 125.592 14.8467 125.592 15.46ZM140.691 11.18C141.584 10.3 142.864 9.86 144.531 9.86L143.731 13.86C143.398 13.8067 143.071 13.78 142.751 13.78C141.978 13.78 141.364 13.9533 140.911 14.3C140.471 14.6333 140.171 15.18 140.011 15.94L138.991 21H134.471L136.651 10.06H140.911L140.691 11.18ZM159.065 10.06L152.345 21.22C151.745 22.22 151.158 22.9933 150.585 23.54C150.012 24.1 149.398 24.4933 148.745 24.72C148.105 24.96 147.352 25.08 146.485 25.08C145.885 25.08 145.292 24.9933 144.705 24.82C144.105 24.6467 143.625 24.42 143.265 24.14L145.225 21C145.732 21.3867 146.278 21.58 146.865 21.58C147.305 21.58 147.678 21.4267 147.985 21.12L145.585 10.06H150.085L151.205 15.94L154.645 10.06H159.065Z" fill="white"/>
<path d="M85.04 34.494C85.04 35.012 84.9513 35.4647 84.774 35.852C84.6013 36.2347 84.3447 36.5333 84.004 36.748C83.6633 36.9627 83.241 37.07 82.737 37.07C82.219 37.07 81.7873 36.9627 81.442 36.748C81.1013 36.5333 80.847 36.2323 80.679 35.845C80.511 35.4577 80.427 35.005 80.427 34.487C80.427 33.9737 80.511 33.5257 80.679 33.143C80.847 32.7603 81.1013 32.4617 81.442 32.247C81.7873 32.0323 82.2213 31.925 82.744 31.925C83.2433 31.925 83.6633 32.0323 84.004 32.247C84.3447 32.457 84.6013 32.7557 84.774 33.143C84.9513 33.5257 85.04 33.976 85.04 34.494ZM81.092 34.494C81.092 35.124 81.225 35.621 81.491 35.985C81.757 36.3443 82.1723 36.524 82.737 36.524C83.3063 36.524 83.7217 36.3443 83.983 35.985C84.2443 35.621 84.375 35.124 84.375 34.494C84.375 33.864 84.2443 33.3717 83.983 33.017C83.7217 32.6577 83.3087 32.478 82.744 32.478C82.1793 32.478 81.7617 32.6577 81.491 33.017C81.225 33.3717 81.092 33.864 81.092 34.494ZM85.8678 34.746C85.8678 33.9247 85.9914 33.2853 86.2388 32.828C86.4861 32.366 86.8851 32.0767 87.4358 31.96C87.7391 31.8947 88.0354 31.8363 88.3248 31.785C88.6141 31.7337 88.8848 31.687 89.1368 31.645L89.2418 32.184C89.0784 32.2073 88.8941 32.2377 88.6888 32.275C88.4834 32.3077 88.2804 32.3427 88.0798 32.38C87.8791 32.4127 87.7064 32.4453 87.5618 32.478C87.2584 32.5433 87.0181 32.702 86.8408 32.954C86.6634 33.2013 86.5631 33.5887 86.5398 34.116H86.5818C86.6471 34.0273 86.7358 33.9363 86.8478 33.843C86.9644 33.7497 87.1021 33.6703 87.2608 33.605C87.4241 33.5397 87.6084 33.507 87.8138 33.507C88.2991 33.507 88.6654 33.6633 88.9128 33.976C89.1601 34.2887 89.2838 34.6947 89.2838 35.194C89.2838 35.6093 89.2114 35.957 89.0667 36.237C88.9221 36.517 88.7214 36.727 88.4648 36.867C88.2081 37.0023 87.9094 37.07 87.5688 37.07C87.0508 37.07 86.6378 36.8717 86.3298 36.475C86.0218 36.0783 85.8678 35.502 85.8678 34.746ZM87.6178 36.559C87.9211 36.559 88.1661 36.461 88.3528 36.265C88.5394 36.069 88.6328 35.733 88.6328 35.257C88.6328 34.8743 88.5604 34.5733 88.4158 34.354C88.2758 34.13 88.0424 34.018 87.7158 34.018C87.5104 34.018 87.3238 34.0647 87.1558 34.158C86.9878 34.2467 86.8478 34.3493 86.7358 34.466C86.6238 34.5827 86.5444 34.6807 86.4977 34.76C86.4977 34.9887 86.5141 35.2103 86.5468 35.425C86.5794 35.6397 86.6354 35.8333 86.7148 36.006C86.7988 36.174 86.9131 36.3093 87.0578 36.412C87.2071 36.51 87.3938 36.559 87.6178 36.559ZM91.5982 33.248V34.788H92.6342C93.1475 34.788 93.5278 34.879 93.7752 35.061C94.0272 35.2383 94.1532 35.502 94.1532 35.852C94.1532 36.202 94.0342 36.482 93.7962 36.692C93.5582 36.8973 93.1685 37 92.6272 37H90.9822V33.766H89.7852V33.248H91.5982ZM92.6132 35.306H91.5982V36.503H92.6342C92.9095 36.503 93.1288 36.4563 93.2922 36.363C93.4602 36.2697 93.5442 36.111 93.5442 35.887C93.5442 35.663 93.4672 35.5113 93.3132 35.432C93.1592 35.348 92.9258 35.306 92.6132 35.306ZM95.3592 37H94.6452L95.7162 35.425C95.5715 35.3877 95.4315 35.3293 95.2962 35.25C95.1609 35.166 95.0512 35.0517 94.9672 34.907C94.8832 34.7577 94.8412 34.5733 94.8412 34.354C94.8412 33.9947 94.9625 33.7217 95.2052 33.535C95.4479 33.3437 95.7699 33.248 96.1712 33.248H97.8512V37H97.2352V35.509H96.3252L95.3592 37ZM95.4362 34.361C95.4362 34.5757 95.5155 34.7367 95.6742 34.844C95.8375 34.9467 96.0639 34.998 96.3532 34.998H97.2352V33.759H96.2342C95.9495 33.759 95.7442 33.815 95.6182 33.927C95.4969 34.039 95.4362 34.1837 95.4362 34.361ZM102.055 34.193C102.055 34.4263 101.985 34.6083 101.845 34.739C101.705 34.8697 101.526 34.9583 101.306 35.005V35.033C101.54 35.0657 101.743 35.1497 101.915 35.285C102.088 35.4157 102.174 35.621 102.174 35.901C102.174 36.2183 102.055 36.482 101.817 36.692C101.584 36.8973 101.197 37 100.655 37H99.0384V33.248H100.648C100.914 33.248 101.152 33.2783 101.362 33.339C101.577 33.395 101.745 33.493 101.866 33.633C101.992 33.7683 102.055 33.955 102.055 34.193ZM101.432 34.27C101.432 34.0927 101.367 33.9643 101.236 33.885C101.11 33.801 100.903 33.759 100.613 33.759H99.6544V34.788H100.501C101.122 34.788 101.432 34.6153 101.432 34.27ZM101.537 35.901C101.537 35.6863 101.456 35.5323 101.292 35.439C101.129 35.3457 100.889 35.299 100.571 35.299H99.6544V36.503H100.585C100.893 36.503 101.129 36.4587 101.292 36.37C101.456 36.2767 101.537 36.1203 101.537 35.901ZM105.928 37H105.305V33.759H104.199C104.138 34.5477 104.054 35.1847 103.947 35.67C103.839 36.1507 103.697 36.5007 103.52 36.72C103.342 36.9393 103.118 37.049 102.848 37.049C102.787 37.049 102.726 37.0443 102.666 37.035C102.61 37.0303 102.563 37.0187 102.526 37V36.538C102.554 36.5473 102.584 36.5543 102.617 36.559C102.649 36.5637 102.682 36.566 102.715 36.566C102.967 36.566 103.167 36.2977 103.317 35.761C103.471 35.2243 103.587 34.3867 103.667 33.248H105.928V37ZM108.567 33.178C108.889 33.178 109.165 33.248 109.393 33.388C109.627 33.528 109.804 33.7263 109.925 33.983C110.051 34.235 110.114 34.5313 110.114 34.872V35.243H107.545C107.555 35.6677 107.662 35.992 107.867 36.216C108.077 36.4353 108.369 36.545 108.742 36.545C108.98 36.545 109.19 36.524 109.372 36.482C109.559 36.4353 109.75 36.37 109.946 36.286V36.825C109.755 36.909 109.566 36.9697 109.379 37.007C109.193 37.049 108.971 37.07 108.714 37.07C108.36 37.07 108.045 36.9977 107.769 36.853C107.499 36.7083 107.286 36.4937 107.132 36.209C106.983 35.9197 106.908 35.5673 106.908 35.152C106.908 34.7413 106.976 34.389 107.111 34.095C107.251 33.801 107.445 33.5747 107.692 33.416C107.944 33.2573 108.236 33.178 108.567 33.178ZM108.56 33.682C108.266 33.682 108.033 33.7777 107.86 33.969C107.692 34.1557 107.592 34.417 107.559 34.753H109.47C109.466 34.4357 109.391 34.179 109.246 33.983C109.102 33.7823 108.873 33.682 108.56 33.682ZM111.686 33.248V34.809H113.723V33.248H114.339V37H113.723V35.327H111.686V37H111.07V33.248H111.686ZM116.108 33.248V35.537C116.108 35.593 116.105 35.677 116.101 35.789C116.096 35.901 116.089 36.013 116.08 36.125C116.075 36.237 116.07 36.3257 116.066 36.391L118.075 33.248H118.831V37H118.257V34.788C118.257 34.7133 118.257 34.6153 118.257 34.494C118.261 34.3727 118.266 34.2537 118.271 34.137C118.275 34.0157 118.28 33.9247 118.285 33.864L116.29 37H115.527V33.248H116.108ZM120.256 37H119.542L120.613 35.425C120.468 35.3877 120.328 35.3293 120.193 35.25C120.057 35.166 119.948 35.0517 119.864 34.907C119.78 34.7577 119.738 34.5733 119.738 34.354C119.738 33.9947 119.859 33.7217 120.102 33.535C120.344 33.3437 120.666 33.248 121.068 33.248H122.748V37H122.132V35.509H121.222L120.256 37ZM120.333 34.361C120.333 34.5757 120.412 34.7367 120.571 34.844C120.734 34.9467 120.96 34.998 121.25 34.998H122.132V33.759H121.131C120.846 33.759 120.641 33.815 120.515 33.927C120.393 34.039 120.333 34.1837 120.333 34.361ZM128.819 33.248V36.482H129.365V38.302H128.77V37H126.159V38.302H125.571V36.482H125.872C126.194 36.0387 126.435 35.5347 126.593 34.97C126.757 34.4007 126.841 33.8267 126.845 33.248H128.819ZM128.224 33.731H127.391C127.373 34.0483 127.324 34.3773 127.244 34.718C127.165 35.054 127.062 35.376 126.936 35.684C126.815 35.992 126.673 36.258 126.509 36.482H128.224V33.731ZM132.957 37H132.334V33.759H131.228C131.167 34.5477 131.083 35.1847 130.976 35.67C130.869 36.1507 130.726 36.5007 130.549 36.72C130.372 36.9393 130.148 37.049 129.877 37.049C129.816 37.049 129.756 37.0443 129.695 37.035C129.639 37.0303 129.592 37.0187 129.555 37V36.538C129.583 36.5473 129.613 36.5543 129.646 36.559C129.679 36.5637 129.711 36.566 129.744 36.566C129.996 36.566 130.197 36.2977 130.346 35.761C130.5 35.2243 130.617 34.3867 130.696 33.248H132.957V37ZM134.379 37H133.665L134.736 35.425C134.591 35.3877 134.451 35.3293 134.316 35.25C134.18 35.166 134.071 35.0517 133.987 34.907C133.903 34.7577 133.861 34.5733 133.861 34.354C133.861 33.9947 133.982 33.7217 134.225 33.535C134.467 33.3437 134.789 33.248 135.191 33.248H136.871V37H136.255V35.509H135.345L134.379 37ZM134.456 34.361C134.456 34.5757 134.535 34.7367 134.694 34.844C134.857 34.9467 135.083 34.998 135.373 34.998H136.255V33.759H135.254C134.969 33.759 134.764 33.815 134.638 33.927C134.516 34.039 134.456 34.1837 134.456 34.361ZM144.182 33.248V37H143.629V34.606C143.629 34.508 143.631 34.4053 143.636 34.298C143.645 34.1907 143.654 34.0857 143.664 33.983H143.643L142.418 37H141.9L140.71 33.983H140.689C140.703 34.193 140.71 34.4077 140.71 34.627V37H140.157V33.248H140.976L142.159 36.265L143.363 33.248H144.182ZM146.8 33.185C147.258 33.185 147.596 33.2853 147.815 33.486C148.035 33.6867 148.144 34.0063 148.144 34.445V37H147.696L147.577 36.468H147.549C147.386 36.6733 147.213 36.825 147.031 36.923C146.854 37.021 146.607 37.07 146.289 37.07C145.949 37.07 145.666 36.9813 145.442 36.804C145.218 36.622 145.106 36.3397 145.106 35.957C145.106 35.5837 145.253 35.2967 145.547 35.096C145.841 34.8907 146.294 34.7787 146.905 34.76L147.542 34.739V34.515C147.542 34.2023 147.475 33.9853 147.339 33.864C147.204 33.7427 147.013 33.682 146.765 33.682C146.569 33.682 146.383 33.7123 146.205 33.773C146.028 33.829 145.862 33.8943 145.708 33.969L145.519 33.507C145.683 33.4183 145.876 33.3437 146.1 33.283C146.324 33.2177 146.558 33.185 146.8 33.185ZM147.535 35.166L146.982 35.187C146.516 35.2057 146.191 35.2803 146.009 35.411C145.832 35.5417 145.743 35.726 145.743 35.964C145.743 36.174 145.806 36.328 145.932 36.426C146.063 36.524 146.229 36.573 146.429 36.573C146.747 36.573 147.01 36.4867 147.22 36.314C147.43 36.1367 147.535 35.866 147.535 35.502V35.166ZM152.159 37H151.536V33.759H150.43C150.369 34.5477 150.285 35.1847 150.178 35.67C150.071 36.1507 149.928 36.5007 149.751 36.72C149.574 36.9393 149.35 37.049 149.079 37.049C149.018 37.049 148.958 37.0443 148.897 37.035C148.841 37.0303 148.794 37.0187 148.757 37V36.538C148.785 36.5473 148.815 36.5543 148.848 36.559C148.881 36.5637 148.913 36.566 148.946 36.566C149.198 36.566 149.399 36.2977 149.548 35.761C149.702 35.2243 149.819 34.3867 149.898 33.248H152.159V37ZM156.612 35.117C156.612 35.7377 156.453 36.2183 156.136 36.559C155.823 36.8997 155.399 37.07 154.862 37.07C154.531 37.07 154.234 36.9953 153.973 36.846C153.716 36.692 153.513 36.4703 153.364 36.181C153.215 35.887 153.14 35.5323 153.14 35.117C153.14 34.4963 153.296 34.018 153.609 33.682C153.922 33.346 154.346 33.178 154.883 33.178C155.224 33.178 155.522 33.255 155.779 33.409C156.04 33.5583 156.243 33.7777 156.388 34.067C156.537 34.3517 156.612 34.7017 156.612 35.117ZM153.777 35.117C153.777 35.5603 153.863 35.9127 154.036 36.174C154.213 36.4307 154.493 36.559 154.876 36.559C155.254 36.559 155.532 36.4307 155.709 36.174C155.886 35.9127 155.975 35.5603 155.975 35.117C155.975 34.6737 155.886 34.326 155.709 34.074C155.532 33.822 155.252 33.696 154.869 33.696C154.486 33.696 154.209 33.822 154.036 34.074C153.863 34.326 153.777 34.6737 153.777 35.117ZM159.877 33.248V33.766H158.204V37H157.588V33.248H159.877ZM163.81 35.117C163.81 35.7377 163.651 36.2183 163.334 36.559C163.021 36.8997 162.597 37.07 162.06 37.07C161.729 37.07 161.432 36.9953 161.171 36.846C160.914 36.692 160.711 36.4703 160.562 36.181C160.413 35.887 160.338 35.5323 160.338 35.117C160.338 34.4963 160.494 34.018 160.807 33.682C161.12 33.346 161.544 33.178 162.081 33.178C162.422 33.178 162.72 33.255 162.977 33.409C163.238 33.5583 163.441 33.7777 163.586 34.067C163.735 34.3517 163.81 34.7017 163.81 35.117ZM160.975 35.117C160.975 35.5603 161.061 35.9127 161.234 36.174C161.411 36.4307 161.691 36.559 162.074 36.559C162.452 36.559 162.73 36.4307 162.907 36.174C163.084 35.9127 163.173 35.5603 163.173 35.117C163.173 34.6737 163.084 34.326 162.907 34.074C162.73 33.822 162.45 33.696 162.067 33.696C161.684 33.696 161.407 33.822 161.234 34.074C161.061 34.326 160.975 34.6737 160.975 35.117ZM81.176 42.248V44.537C81.176 44.593 81.1737 44.677 81.169 44.789C81.1643 44.901 81.1573 45.013 81.148 45.125C81.1433 45.237 81.1387 45.3257 81.134 45.391L83.143 42.248H83.899V46H83.325V43.788C83.325 43.7133 83.325 43.6153 83.325 43.494C83.3297 43.3727 83.3343 43.2537 83.339 43.137C83.3437 43.0157 83.3483 42.9247 83.353 42.864L81.358 46H80.595V42.248H81.176ZM88.6967 46.07C88.3653 46.07 88.069 46.0023 87.8077 45.867C87.551 45.7317 87.348 45.5217 87.1987 45.237C87.054 44.9523 86.9817 44.5883 86.9817 44.145C86.9817 43.683 87.0587 43.3073 87.2127 43.018C87.3667 42.7287 87.5743 42.5163 87.8357 42.381C88.1017 42.2457 88.4027 42.178 88.7387 42.178C88.93 42.178 89.1143 42.199 89.2917 42.241C89.469 42.2783 89.6137 42.325 89.7257 42.381L89.5367 42.892C89.4247 42.85 89.294 42.8103 89.1447 42.773C88.9953 42.7357 88.8553 42.717 88.7247 42.717C87.9873 42.717 87.6187 43.1907 87.6187 44.138C87.6187 44.5907 87.7073 44.9383 87.8847 45.181C88.0667 45.419 88.335 45.538 88.6897 45.538C88.895 45.538 89.0747 45.517 89.2287 45.475C89.3873 45.433 89.532 45.3817 89.6627 45.321V45.867C89.5367 45.9323 89.3967 45.9813 89.2427 46.014C89.0933 46.0513 88.9113 46.07 88.6967 46.07ZM92.34 42.178C92.802 42.178 93.173 42.339 93.453 42.661C93.7376 42.983 93.88 43.4683 93.88 44.117C93.88 44.7563 93.7376 45.2417 93.453 45.573C93.173 45.9043 92.7996 46.07 92.333 46.07C92.0436 46.07 91.8033 46.0163 91.612 45.909C91.4253 45.797 91.2783 45.6687 91.171 45.524H91.129C91.1383 45.6033 91.1476 45.7037 91.157 45.825C91.1663 45.9463 91.171 46.0513 91.171 46.14V47.68H90.555V42.248H91.059L91.143 42.759H91.171C91.283 42.5957 91.43 42.458 91.612 42.346C91.794 42.234 92.0366 42.178 92.34 42.178ZM92.228 42.696C91.8453 42.696 91.5746 42.8033 91.416 43.018C91.262 43.2327 91.1803 43.5593 91.171 43.998V44.117C91.171 44.579 91.2456 44.936 91.395 45.188C91.549 45.4353 91.8313 45.559 92.242 45.559C92.4706 45.559 92.6573 45.496 92.802 45.37C92.9513 45.244 93.061 45.0737 93.131 44.859C93.2056 44.6397 93.243 44.39 93.243 44.11C93.243 43.6807 93.159 43.3377 92.991 43.081C92.8276 42.8243 92.5733 42.696 92.228 42.696ZM96.3106 42.178C96.6326 42.178 96.9079 42.248 97.1366 42.388C97.3699 42.528 97.5473 42.7263 97.6686 42.983C97.7946 43.235 97.8576 43.5313 97.8576 43.872V44.243H95.2886C95.2979 44.6677 95.4053 44.992 95.6106 45.216C95.8206 45.4353 96.1123 45.545 96.4856 45.545C96.7236 45.545 96.9336 45.524 97.1156 45.482C97.3023 45.4353 97.4936 45.37 97.6896 45.286V45.825C97.4983 45.909 97.3093 45.9697 97.1226 46.007C96.9359 46.049 96.7143 46.07 96.4576 46.07C96.1029 46.07 95.7879 45.9977 95.5126 45.853C95.2419 45.7083 95.0296 45.4937 94.8756 45.209C94.7263 44.9197 94.6516 44.5673 94.6516 44.152C94.6516 43.7413 94.7193 43.389 94.8546 43.095C94.9946 42.801 95.1883 42.5747 95.4356 42.416C95.6876 42.2573 95.9793 42.178 96.3106 42.178ZM96.3036 42.682C96.0096 42.682 95.7763 42.7777 95.6036 42.969C95.4356 43.1557 95.3353 43.417 95.3026 43.753H97.2136C97.2089 43.4357 97.1343 43.179 96.9896 42.983C96.8449 42.7823 96.6163 42.682 96.3036 42.682ZM101.599 42.248V45.482H102.145V47.302H101.55V46H98.9388V47.302H98.3508V45.482H98.6518C98.9738 45.0387 99.2141 44.5347 99.3728 43.97C99.5361 43.4007 99.6201 42.8267 99.6248 42.248H101.599ZM101.004 42.731H100.171C100.152 43.0483 100.103 43.3773 100.024 43.718C99.9444 44.054 99.8418 44.376 99.7158 44.684C99.5944 44.992 99.4521 45.258 99.2888 45.482H101.004V42.731ZM103.496 42.248V43.809H105.533V42.248H106.149V46H105.533V44.327H103.496V46H102.88V42.248H103.496ZM108.786 42.178C109.108 42.178 109.384 42.248 109.612 42.388C109.846 42.528 110.023 42.7263 110.144 42.983C110.27 43.235 110.333 43.5313 110.333 43.872V44.243H107.764C107.774 44.6677 107.881 44.992 108.086 45.216C108.296 45.4353 108.588 45.545 108.961 45.545C109.199 45.545 109.409 45.524 109.591 45.482C109.778 45.4353 109.969 45.37 110.165 45.286V45.825C109.974 45.909 109.785 45.9697 109.598 46.007C109.412 46.049 109.19 46.07 108.933 46.07C108.579 46.07 108.264 45.9977 107.988 45.853C107.718 45.7083 107.505 45.4937 107.351 45.209C107.202 44.9197 107.127 44.5673 107.127 44.152C107.127 43.7413 107.195 43.389 107.33 43.095C107.47 42.801 107.664 42.5747 107.911 42.416C108.163 42.2573 108.455 42.178 108.786 42.178ZM108.779 42.682C108.485 42.682 108.252 42.7777 108.079 42.969C107.911 43.1557 107.811 43.417 107.778 43.753H109.689C109.685 43.4357 109.61 43.179 109.465 42.983C109.321 42.7823 109.092 42.682 108.779 42.682ZM113.577 42.248V42.766H111.904V46H111.288V42.248H113.577ZM117.51 44.117C117.51 44.7377 117.352 45.2183 117.034 45.559C116.722 45.8997 116.297 46.07 115.76 46.07C115.429 46.07 115.133 45.9953 114.871 45.846C114.615 45.692 114.412 45.4703 114.262 45.181C114.113 44.887 114.038 44.5323 114.038 44.117C114.038 43.4963 114.195 43.018 114.507 42.682C114.82 42.346 115.245 42.178 115.781 42.178C116.122 42.178 116.421 42.255 116.677 42.409C116.939 42.5583 117.142 42.7777 117.286 43.067C117.436 43.3517 117.51 43.7017 117.51 44.117ZM114.675 44.117C114.675 44.5603 114.762 44.9127 114.934 45.174C115.112 45.4307 115.392 45.559 115.774 45.559C116.152 45.559 116.43 45.4307 116.607 45.174C116.785 44.9127 116.873 44.5603 116.873 44.117C116.873 43.6737 116.785 43.326 116.607 43.074C116.43 42.822 116.15 42.696 115.767 42.696C115.385 42.696 115.107 42.822 114.934 43.074C114.762 43.326 114.675 43.6737 114.675 44.117ZM120.389 43.746C120.389 42.9247 120.513 42.2853 120.76 41.828C121.008 41.366 121.407 41.0767 121.957 40.96C122.261 40.8947 122.557 40.8363 122.846 40.785C123.136 40.7337 123.406 40.687 123.658 40.645L123.763 41.184C123.6 41.2073 123.416 41.2377 123.21 41.275C123.005 41.3077 122.802 41.3427 122.601 41.38C122.401 41.4127 122.228 41.4453 122.083 41.478C121.78 41.5433 121.54 41.702 121.362 41.954C121.185 42.2013 121.085 42.5887 121.061 43.116H121.103C121.169 43.0273 121.257 42.9363 121.369 42.843C121.486 42.7497 121.624 42.6703 121.782 42.605C121.946 42.5397 122.13 42.507 122.335 42.507C122.821 42.507 123.187 42.6633 123.434 42.976C123.682 43.2887 123.805 43.6947 123.805 44.194C123.805 44.6093 123.733 44.957 123.588 45.237C123.444 45.517 123.243 45.727 122.986 45.867C122.73 46.0023 122.431 46.07 122.09 46.07C121.572 46.07 121.159 45.8717 120.851 45.475C120.543 45.0783 120.389 44.502 120.389 43.746ZM122.139 45.559C122.443 45.559 122.688 45.461 122.874 45.265C123.061 45.069 123.154 44.733 123.154 44.257C123.154 43.8743 123.082 43.5733 122.937 43.354C122.797 43.13 122.564 43.018 122.237 43.018C122.032 43.018 121.845 43.0647 121.677 43.158C121.509 43.2467 121.369 43.3493 121.257 43.466C121.145 43.5827 121.066 43.6807 121.019 43.76C121.019 43.9887 121.036 44.2103 121.068 44.425C121.101 44.6397 121.157 44.8333 121.236 45.006C121.32 45.174 121.435 45.3093 121.579 45.412C121.729 45.51 121.915 45.559 122.139 45.559ZM125.357 42.248V44.537C125.357 44.593 125.354 44.677 125.35 44.789C125.345 44.901 125.338 45.013 125.329 45.125C125.324 45.237 125.319 45.3257 125.315 45.391L127.324 42.248H128.08V46H127.506V43.788C127.506 43.7133 127.506 43.6153 127.506 43.494C127.51 43.3727 127.515 43.2537 127.52 43.137C127.524 43.0157 127.529 42.9247 127.534 42.864L125.539 46H124.776V42.248H125.357ZM130.261 42.178C130.69 42.178 131.031 42.2643 131.283 42.437C131.539 42.605 131.668 42.8477 131.668 43.165C131.668 43.3937 131.605 43.5757 131.479 43.711C131.353 43.8417 131.18 43.9373 130.961 43.998V44.026C131.11 44.068 131.248 44.1263 131.374 44.201C131.5 44.2757 131.6 44.3737 131.675 44.495C131.754 44.6163 131.794 44.7727 131.794 44.964C131.794 45.2767 131.663 45.5403 131.402 45.755C131.145 45.965 130.741 46.07 130.191 46.07C129.92 46.07 129.675 46.0467 129.456 46C129.236 45.958 129.054 45.8997 128.91 45.825V45.272C129.068 45.3467 129.255 45.4143 129.47 45.475C129.689 45.5357 129.927 45.566 130.184 45.566C130.464 45.566 130.699 45.5193 130.891 45.426C131.087 45.328 131.185 45.1623 131.185 44.929C131.185 44.509 130.828 44.299 130.114 44.299H129.61V43.795H130.016C130.338 43.795 130.594 43.753 130.786 43.669C130.982 43.5803 131.08 43.431 131.08 43.221C131.08 43.0437 131.005 42.9107 130.856 42.822C130.711 42.7333 130.501 42.689 130.226 42.689C130.02 42.689 129.838 42.71 129.68 42.752C129.526 42.7893 129.355 42.8477 129.169 42.927L128.952 42.437C129.344 42.2643 129.78 42.178 130.261 42.178ZM133.321 42.248V43.809H135.358V42.248H135.974V46H135.358V44.327H133.321V46H132.705V42.248H133.321ZM138.611 42.178C138.933 42.178 139.209 42.248 139.437 42.388C139.671 42.528 139.848 42.7263 139.969 42.983C140.095 43.235 140.158 43.5313 140.158 43.872V44.243H137.589C137.599 44.6677 137.706 44.992 137.911 45.216C138.121 45.4353 138.413 45.545 138.786 45.545C139.024 45.545 139.234 45.524 139.416 45.482C139.603 45.4353 139.794 45.37 139.99 45.286V45.825C139.799 45.909 139.61 45.9697 139.423 46.007C139.237 46.049 139.015 46.07 138.758 46.07C138.404 46.07 138.089 45.9977 137.813 45.853C137.543 45.7083 137.33 45.4937 137.176 45.209C137.027 44.9197 136.952 44.5673 136.952 44.152C136.952 43.7413 137.02 43.389 137.155 43.095C137.295 42.801 137.489 42.5747 137.736 42.416C137.988 42.2573 138.28 42.178 138.611 42.178ZM138.604 42.682C138.31 42.682 138.077 42.7777 137.904 42.969C137.736 43.1557 137.636 43.417 137.603 43.753H139.514C139.51 43.4357 139.435 43.179 139.29 42.983C139.146 42.7823 138.917 42.682 138.604 42.682ZM142.619 46.07C142.287 46.07 141.991 46.0023 141.73 45.867C141.473 45.7317 141.27 45.5217 141.121 45.237C140.976 44.9523 140.904 44.5883 140.904 44.145C140.904 43.683 140.981 43.3073 141.135 43.018C141.289 42.7287 141.496 42.5163 141.758 42.381C142.024 42.2457 142.325 42.178 142.661 42.178C142.852 42.178 143.036 42.199 143.214 42.241C143.391 42.2783 143.536 42.325 143.648 42.381L143.459 42.892C143.347 42.85 143.216 42.8103 143.067 42.773C142.917 42.7357 142.777 42.717 142.647 42.717C141.909 42.717 141.541 43.1907 141.541 44.138C141.541 44.5907 141.629 44.9383 141.807 45.181C141.989 45.419 142.257 45.538 142.612 45.538C142.817 45.538 142.997 45.517 143.151 45.475C143.309 45.433 143.454 45.3817 143.585 45.321V45.867C143.459 45.9323 143.319 45.9813 143.165 46.014C143.015 46.0513 142.833 46.07 142.619 46.07ZM145.898 42.185C146.355 42.185 146.694 42.2853 146.913 42.486C147.132 42.6867 147.242 43.0063 147.242 43.445V46H146.794L146.675 45.468H146.647C146.484 45.6733 146.311 45.825 146.129 45.923C145.952 46.021 145.704 46.07 145.387 46.07C145.046 46.07 144.764 45.9813 144.54 45.804C144.316 45.622 144.204 45.3397 144.204 44.957C144.204 44.5837 144.351 44.2967 144.645 44.096C144.939 43.8907 145.392 43.7787 146.003 43.76L146.64 43.739V43.515C146.64 43.2023 146.572 42.9853 146.437 42.864C146.302 42.7427 146.11 42.682 145.863 42.682C145.667 42.682 145.48 42.7123 145.303 42.773C145.126 42.829 144.96 42.8943 144.806 42.969L144.617 42.507C144.78 42.4183 144.974 42.3437 145.198 42.283C145.422 42.2177 145.655 42.185 145.898 42.185ZM146.633 44.166L146.08 44.187C145.613 44.2057 145.289 44.2803 145.107 44.411C144.93 44.5417 144.841 44.726 144.841 44.964C144.841 45.174 144.904 45.328 145.03 45.426C145.161 45.524 145.326 45.573 145.527 45.573C145.844 45.573 146.108 45.4867 146.318 45.314C146.528 45.1367 146.633 44.866 146.633 44.502V44.166Z" fill="white"/>
<path d="M54 27C54 41.9117 41.9117 54 27 54C12.0883 54 0 41.9117 0 27C0 12.0883 12.0883 0 27 0C41.9117 0 54 12.0883 54 27Z" fill="white"/>
<path d="M31.5254 31.9619C34.0248 31.9619 36.0509 29.9445 36.0509 27.456C36.0509 24.9675 34.0248 22.9502 31.5254 22.9502C29.0261 22.9502 27 24.9675 27 27.456C27 29.9445 29.0261 31.9619 31.5254 31.9619Z" fill="#212223"/>
<path d="M46.6915 31.5058C49.1908 31.5058 51.2169 29.4885 51.2169 27C51.2169 24.5115 49.1908 22.4941 46.6915 22.4941C44.1921 22.4941 42.166 24.5115 42.166 27C42.166 29.4885 44.1921 31.5058 46.6915 31.5058Z" fill="#212223"/>
<path d="M40.0993 34.65C38.4149 37.4851 35.8415 39.6905 32.7751 40.9268C29.7087 42.1632 26.3192 42.3619 23.1282 41.4926C19.9372 40.6232 17.1215 38.7338 15.1145 36.1153C13.1075 33.4967 12.0204 30.294 12.0204 27C12.0204 23.706 13.1075 20.5033 15.1145 17.8847C17.1215 15.2662 19.9372 13.3768 23.1282 12.5074C26.3192 11.6381 29.7087 11.8368 32.7751 13.0732C35.8415 14.3095 38.4149 16.5149 40.0993 19.35C41.158 17.5708 42.5738 16.0282 44.2584 14.8185C45.9429 13.6088 47.86 12.7581 49.8897 12.3195C46.7087 7.43061 42.0249 3.69717 36.5377 1.6765C31.0504 -0.344174 25.054 -0.543707 19.4435 1.10769C13.833 2.75908 8.90937 6.17283 5.40758 10.8393C1.90579 15.5058 0.0136719 21.1748 0.0136719 27C0.0136719 32.8252 1.90579 38.4942 5.40758 43.1607C8.90937 47.8272 13.833 51.2409 19.4435 52.8923C25.054 54.5437 31.0504 54.3442 36.5377 52.3235C42.0249 50.3028 46.7087 46.5694 49.8897 41.6805C47.8601 41.2416 45.9432 40.3908 44.2587 39.1811C42.5742 37.9715 41.1582 36.429 40.0993 34.65Z" fill="#319CD7"/>
</svg>
