<svg width="16" height="16" viewBox="0 0 16 16" fill="none" xmlns="http://www.w3.org/2000/svg">
<path fill-rule="evenodd" clip-rule="evenodd" d="M11.2443 10.1743L15.2793 14.2093C15.4211 14.3512 15.5008 14.5437 15.5007 14.7443C15.5006 14.945 15.4209 15.1374 15.2789 15.2792C15.137 15.421 14.9446 15.5006 14.7439 15.5006C14.5433 15.5005 14.3509 15.4207 14.2091 15.2788L10.1741 11.2438C8.96784 12.1781 7.45102 12.6177 5.93215 12.4733C4.41329 12.3289 3.00648 11.6113 1.99792 10.4665C0.989358 9.3217 0.454801 7.83566 0.502997 6.31071C0.551193 4.78576 1.17852 3.33645 2.25736 2.25761C3.3362 1.17877 4.78552 0.551437 6.31047 0.503241C7.83542 0.455045 9.32145 0.989602 10.4663 1.99816C11.6111 3.00673 12.3287 4.41353 12.4731 5.9324C12.6175 7.45126 12.1778 8.96809 11.2436 10.1743H11.2443ZM6.50056 11.0001C7.69403 11.0001 8.83862 10.5259 9.68254 9.68203C10.5265 8.83812 11.0006 7.69353 11.0006 6.50005C11.0006 5.30658 10.5265 4.16199 9.68254 3.31807C8.83862 2.47416 7.69403 2.00005 6.50056 2.00005C5.30708 2.00005 4.16249 2.47416 3.31858 3.31807C2.47466 4.16199 2.00056 5.30658 2.00056 6.50005C2.00056 7.69353 2.47466 8.83812 3.31858 9.68203C4.16249 10.5259 5.30708 11.0001 6.50056 11.0001Z" fill="#319CD6"/>
</svg>
