<svg aria-hidden="true" style="position: absolute; width: 0; height: 0; overflow: hidden;" version="1.1" xmlns="http://www.w3.org/2000/svg" xmlns:xlink="http://www.w3.org/1999/xlink">
<defs>
<symbol id="icon-close" viewBox="0 0 32 32">
<title>close</title>
<path d="M20.895 16l9.791-9.791-4.895-4.895-9.791 9.791-9.791-9.791-4.895 4.895 9.791 9.791-9.791 9.791 4.895 4.895 9.791-9.791 9.791 9.791 4.895-4.895-9.791-9.791z"></path>
</symbol>
<symbol id="icon-arrow-left" viewBox="0 0 19 32">
<title>arrow-left</title>
<path d="M1.252 14.586c-0.781 0.781-0.781 2.047 0 2.829l12.728 12.728c0.781 0.781 2.047 0.781 2.828 0s0.781-2.047 0-2.828l-11.314-11.314 11.314-11.314c0.781-0.781 0.781-2.047 0-2.828s-2.047-0.781-2.828 0l-12.728 12.728zM4 14h-1.333v4h1.333v-4z"></path>
</symbol>
<symbol id="icon-arrow-right" viewBox="0 0 19 32">
<title>arrow-right</title>
<path d="M17.414 17.414c0.781-0.781 0.781-2.047 0-2.829l-12.728-12.728c-0.781-0.781-2.047-0.781-2.828 0s-0.781 2.047 0 2.828l11.314 11.314-11.314 11.314c-0.781 0.781-0.781 2.047 0 2.828s2.047 0.781 2.828 0l12.728-12.728zM14.667 18h1.333v-4h-1.333v4z"></path>
</symbol>
<symbol id="icon-checked" viewBox="0 0 43 32">
<title>checked</title>
<path d="M42.175 6.416l-24.449 24.443c-0.655 0.653-1.716 0.653-2.369 0l-14.868-14.963c-0.653-0.655-0.653-1.72 0-2.371l3.552-3.55c0.655-0.654 1.716-0.654 2.369 0l10.144 10.211 19.695-19.696c0.653-0.653 1.714-0.653 2.371 0l3.553 3.555c0.659 0.654 0.659 1.719 0.001 2.371z"></path>
</symbol>
<symbol id="icon-edit" viewBox="0 0 37 32">
<title>edit</title>
<path d="M25.543 21.555l2.032-2c0.317-0.313 0.87-0.094 0.87 0.356v9.087c0 1.656-1.365 3-3.048 3h-22.349c-1.683 0-3.048-1.344-3.048-3v-22c0-1.656 1.365-3 3.048-3h17.365c0.451 0 0.679 0.537 0.362 0.856l-2.032 2c-0.095 0.094-0.222 0.144-0.362 0.144h-15.333v22h22.349v-7.094c0-0.131 0.051-0.256 0.146-0.35zM35.486 8.943l-16.673 16.413-5.74 0.625c-1.663 0.181-3.079-1.2-2.895-2.85l0.635-5.65 16.673-16.413c1.454-1.431 3.803-1.431 5.251 0l2.743 2.7c1.454 1.431 1.454 3.75 0.006 5.175zM29.213 10.874l-3.689-3.631-11.797 11.619-0.463 4.081 4.146-0.456 11.803-11.613zM33.327 5.893l-2.743-2.7c-0.26-0.256-0.686-0.256-0.94 0l-1.962 1.931 3.689 3.631 1.962-1.931c0.254-0.263 0.254-0.675-0.006-0.931z"></path>
</symbol>
<symbol id="icon-excel" viewBox="0 0 32 32">
<title>excel</title>
<path d="M31.404 4.136h-10.72v1.984h3.16v3.139h-3.16v1h3.16v3.143h-3.16v1.028h3.16v2.972h-3.16v1.191h3.16v2.979h-3.16v1.191h3.16v2.996h-3.16v2.185h10.72c0.169-0.051 0.311-0.251 0.424-0.597 0.113-0.349 0.172-0.633 0.172-0.848v-21.999c0-0.171-0.059-0.273-0.172-0.309-0.138-0.038-0.281-0.056-0.424-0.053zM30.013 25.754h-5.143v-2.993h5.143v2.993zM30.013 21.57h-5.143v-2.98h5.143v2.98zM30.013 17.4h-5.143v-2.959h5.143v2.959zM30.013 13.4h-5.143v-3.139h5.143v3.139zM30.013 9.241h-5.143v-3.12h5.143v3.12zM0 3.641v24.801l18.88 3.265v-31.416l-18.88 3.349zM11.191 22.402c-0.072-0.195-0.411-1.021-1.011-2.484-0.348-0.855-0.703-1.706-1.065-2.555h-0.033l-2.025 4.82-2.707-0.183 3.211-6-2.94-6 2.76-0.145 1.824 4.695h0.036l2.060-4.908 2.852-0.18-3.396 6.493 3.5 6.624-3.065-0.177z"></path>
</symbol>
<symbol id="icon-facebook" viewBox="0 0 32 32">
<title>facebook</title>
<path d="M32 16.097c0-8.893-7.161-16.097-16-16.097s-16 7.205-16 16.097c0 8.034 5.851 14.694 13.5 15.903v-11.249h-4.064v-4.653h4.064v-3.547c0-4.034 2.387-6.262 6.043-6.262 1.751 0 3.582 0.314 3.582 0.314v3.959h-2.018c-1.987 0-2.607 1.241-2.607 2.514v3.022h4.437l-0.71 4.653h-3.728v11.249c7.649-1.209 13.5-7.868 13.5-15.903z"></path>
</symbol>
<symbol id="icon-house" viewBox="0 0 32 32">
<title>house</title>
<path d="M32 12.8l-16-11.886-4 2.971v-3.886h-4v6.857l-8 5.943 3.8 6.171 0.2-0.228v13.257h10v-9.143h4v9.143h10v-13.257l0.2 0.228 3.8-6.171zM2.8 13.486l13.2-9.829 13.2 9.829-1.4 2.286-11.8-8.914-11.8 8.914-1.4-2.286zM26 29.714h-6v-9.143h-8v9.143h-6v-12.343l10-7.543 10 7.543v12.343z"></path>
</symbol>
<symbol id="icon-inst" viewBox="0 0 32 32">
<title>inst</title>
<path d="M19.063 16c0 1.691-1.371 3.063-3.063 3.063s-3.063-1.371-3.063-3.063c0-1.691 1.371-3.063 3.063-3.063s3.063 1.371 3.063 3.063z"></path>
<path d="M23.163 10.582c-0.147-0.399-0.382-0.76-0.687-1.056-0.296-0.305-0.657-0.54-1.056-0.687-0.324-0.126-0.81-0.275-1.706-0.316-0.969-0.044-1.26-0.054-3.713-0.054s-2.744 0.009-3.713 0.053c-0.896 0.041-1.382 0.191-1.706 0.316-0.399 0.147-0.76 0.382-1.056 0.687-0.305 0.296-0.54 0.657-0.688 1.056-0.126 0.324-0.275 0.81-0.316 1.706-0.044 0.969-0.054 1.259-0.054 3.713s0.010 2.744 0.054 3.713c0.041 0.896 0.19 1.382 0.316 1.706 0.147 0.399 0.382 0.76 0.687 1.056 0.296 0.305 0.657 0.54 1.056 0.687 0.324 0.126 0.81 0.276 1.706 0.316 0.969 0.044 1.259 0.053 3.712 0.053s2.744-0.009 3.713-0.053c0.896-0.041 1.382-0.191 1.706-0.316 0.801-0.309 1.435-0.942 1.744-1.744 0.126-0.324 0.275-0.81 0.316-1.706 0.044-0.969 0.053-1.26 0.053-3.713s-0.009-2.744-0.053-3.713c-0.041-0.896-0.19-1.382-0.316-1.706zM16.001 20.718c-2.606 0-4.718-2.112-4.718-4.718s2.112-4.718 4.718-4.718c2.605 0 4.718 2.112 4.718 4.718s-2.112 4.718-4.718 4.718zM20.905 12.198c-0.609 0-1.102-0.494-1.102-1.103s0.494-1.102 1.102-1.102 1.102 0.494 1.102 1.102c-0 0.609-0.494 1.103-1.102 1.103z"></path>
<path d="M16 0c-8.835 0-16 7.165-16 16s7.165 16 16 16c8.835 0 16-7.165 16-16s-7.165-16-16-16zM25.132 19.788c-0.044 0.978-0.2 1.646-0.427 2.23-0.477 1.234-1.453 2.21-2.687 2.687-0.584 0.227-1.252 0.382-2.23 0.427-0.98 0.045-1.293 0.055-3.788 0.055s-2.808-0.011-3.788-0.055c-0.978-0.045-1.646-0.2-2.23-0.427-0.613-0.231-1.168-0.592-1.627-1.060-0.467-0.459-0.829-1.014-1.060-1.627-0.227-0.584-0.383-1.252-0.427-2.23-0.045-0.98-0.056-1.293-0.056-3.788s0.011-2.808 0.055-3.788c0.044-0.978 0.2-1.646 0.427-2.23 0.231-0.613 0.593-1.168 1.060-1.627 0.459-0.468 1.014-0.829 1.627-1.060 0.584-0.227 1.252-0.382 2.23-0.427 0.98-0.045 1.293-0.055 3.788-0.055s2.808 0.011 3.788 0.056c0.978 0.044 1.646 0.2 2.23 0.427 0.613 0.231 1.169 0.593 1.628 1.060 0.467 0.459 0.829 1.014 1.060 1.627 0.227 0.584 0.383 1.252 0.427 2.23 0.045 0.98 0.055 1.293 0.055 3.788s-0.011 2.808-0.055 3.788z"></path>
</symbol>
<symbol id="icon-monitor" viewBox="0 0 39 32">
<title>monitor</title>
<path d="M14.768 7.384h-6.564v6.564h3.282v-3.282h3.282v-3.282zM31.178 13.949h-3.282v3.282h-3.282v3.282h6.564v-6.564zM34.46 23.795h-29.538v-19.692h29.538v19.692zM34.46 0.82h-29.538c-1.822 0-3.282 1.46-3.282 3.282v19.692c0 0.87 0.346 1.705 0.961 2.321s1.45 0.961 2.321 0.961h11.487v3.282h-3.282v3.282h13.128v-3.282h-3.282v-3.282h11.487c0.871 0 1.705-0.346 2.321-0.961s0.961-1.45 0.961-2.321v-19.692c0-0.87-0.346-1.705-0.961-2.321s-1.45-0.961-2.321-0.961z"></path>
</symbol>
<symbol id="icon-phone" viewBox="0 0 32 32">
<title>phone</title>
<path d="M31.555 26.609l-4.512 4.476c-0.666 0.683-1.549 0.914-2.408 0.915-3.802-0.114-7.396-1.981-10.346-3.899-4.843-3.523-9.287-7.892-12.076-13.172-1.070-2.214-2.325-5.039-2.205-7.51 0.011-0.93 0.261-1.842 0.916-2.441l4.512-4.509c0.937-0.797 1.843-0.521 2.442 0.407l3.63 6.883c0.382 0.815 0.163 1.689-0.407 2.272l-1.662 1.661c-0.103 0.141-0.168 0.301-0.17 0.475 0.637 2.467 2.568 4.741 4.274 6.306s3.539 3.685 5.919 4.187c0.294 0.082 0.655 0.111 0.865-0.085l1.934-1.966c0.667-0.505 1.629-0.752 2.341-0.339h0.034l6.547 3.865c0.961 0.602 1.061 1.767 0.373 2.475z"></path>
</symbol>
<symbol id="icon-play" viewBox="0 0 31 32">
<title>play</title>
<path d="M22.682 14.844l-10.976-6.673c-0.985-0.549-2.226 0.156-2.226 1.31v12.972c0 1.148 1.235 1.858 2.226 1.31l10.976-6.299c1.023-0.568 1.023-2.046 0-2.619zM30.933 15.967c0-8.544-6.923-15.467-15.467-15.467s-15.467 6.923-15.467 15.467c0 8.544 6.923 15.467 15.467 15.467s15.467-6.923 15.467-15.467zM2.994 15.967c0-6.891 5.582-12.473 12.473-12.473s12.473 5.582 12.473 12.473c0 6.891-5.582 12.473-12.473 12.473s-12.473-5.582-12.473-12.473z"></path>
</symbol>
<symbol id="icon-plus" viewBox="0 0 32 32">
<title>plus</title>
<path d="M27.597 12.802h-9.258v-9.258c0-3.57-5.536-3.57-5.536 0v9.258h-9.258c-3.569 0-3.569 5.536 0 5.536h9.258v9.258c0 3.57 5.536 3.57 5.536 0v-9.258h9.258c3.57 0 3.57-5.536 0-5.536z"></path>
</symbol>
<symbol id="icon-zoom" viewBox="0 0 32 32">
<title>zoom</title>
<path d="M19.906 13.844h-3.688v-4.188c0-0.137-0.113-0.25-0.25-0.25h-1.875c-0.137 0-0.25 0.113-0.25 0.25v4.188h-3.688c-0.137 0-0.25 0.113-0.25 0.25v1.875c0 0.138 0.113 0.25 0.25 0.25h3.688v4.188c0 0.137 0.113 0.25 0.25 0.25h1.875c0.137 0 0.25-0.113 0.25-0.25v-4.188h3.688c0.137 0 0.25-0.113 0.25-0.25v-1.875c0-0.137-0.113-0.25-0.25-0.25zM28.781 27.094l-4.563-4.563c3.816-4.653 3.55-11.547-0.813-15.906-4.625-4.628-12.137-4.628-16.781 0-4.628 4.644-4.628 12.156 0 16.781 4.359 4.363 11.253 4.628 15.906 0.813l4.563 4.563c0.1 0.087 0.259 0.087 0.344 0l1.344-1.344c0.087-0.084 0.087-0.244 0-0.344zM21.75 21.75c-3.712 3.709-9.725 3.709-13.438 0-3.709-3.712-3.709-9.725 0-13.438 3.713-3.709 9.725-3.709 13.438 0 3.709 3.713 3.709 9.725 0 13.438z"></path>
</symbol>
<symbol id="icon-youtube" viewBox="0 0 32 32">
<title>youtube</title>
<path d="M14.006 18.998l5.205-2.998-5.205-2.998v5.995z"></path>
<path d="M16 0c-8.835 0-16 7.165-16 16s7.165 16 16 16c8.835 0 16-7.165 16-16s-7.165-16-16-16zM25.998 16.016c0 0 0 3.245-0.412 4.81-0.231 0.856-0.906 1.532-1.762 1.762-1.565 0.412-7.823 0.412-7.823 0.412s-6.242 0-7.823-0.428c-0.856-0.23-1.532-0.906-1.762-1.762-0.412-1.548-0.412-4.809-0.412-4.809s0-3.245 0.412-4.809c0.23-0.857 0.922-1.548 1.762-1.779 1.565-0.412 7.823-0.412 7.823-0.412s6.259 0 7.823 0.428c0.856 0.23 1.532 0.906 1.762 1.762 0.428 1.565 0.412 4.826 0.412 4.826z"></path>
</symbol>
<symbol id="icon-vk" viewBox="0 0 32 32">
<title>vk</title>
<path d="M16 0c-8.837 0-16 7.163-16 16s7.163 16 16 16c8.837 0 16-7.163 16-16s-7.163-16-16-16zM5.61 10.4h2.357c0.602 0 0.829 0.262 1.056 0.915 1.152 3.36 3.098 6.298 3.896 6.298 0.301 0 0.438-0.139 0.438-0.901v-3.472c-0.088-1.598-0.938-1.731-0.938-2.299 0-0.264 0.224-0.541 0.6-0.541h3.706c0.499 0 0.666 0.266 0.666 0.866v4.672c0 0.499 0.224 0.675 0.376 0.675 0.299 0 0.547-0.176 1.096-0.725 1.699-1.899 2.901-4.822 2.901-4.822 0.149-0.35 0.424-0.666 1.024-0.666h2.357c0.712 0 0.864 0.366 0.715 0.866-0.299 1.374-3.174 5.422-3.174 5.422-0.25 0.4-0.35 0.6 0 1.050 0.25 0.35 1.075 1.048 1.624 1.696 1.013 1.141 1.776 2.101 1.987 2.763 0.195 0.664-0.141 1.003-0.816 1.003h-2.355c-0.899 0-1.163-0.717-2.762-2.315-1.4-1.349-1.998-1.525-2.347-1.525-0.475 0-0.619 0.134-0.619 0.808v2.117c0 0.579-0.186 0.915-1.685 0.915-2.498 0-5.242-1.518-7.19-4.315-2.922-4.096-3.722-7.195-3.722-7.819 0-0.35 0.136-0.666 0.81-0.666z"></path>
</symbol>
<symbol id="icon-upload" viewBox="0 0 32 32">
<title>upload</title>
<path d="M11.333 7.904h3.079v14.096c0 0.183 0.15 0.333 0.333 0.333h2.5c0.183 0 0.333-0.15 0.333-0.333v-14.096h3.087c0.279 0 0.433-0.321 0.262-0.537l-4.667-5.908c-0.031-0.040-0.071-0.072-0.116-0.094s-0.095-0.034-0.146-0.034c-0.051 0-0.101 0.012-0.146 0.034s-0.085 0.054-0.117 0.094l-4.667 5.904c-0.171 0.221-0.017 0.542 0.262 0.542zM31.25 20.75h-2.5c-0.183 0-0.333 0.15-0.333 0.333v6.417h-24.833v-6.417c0-0.183-0.15-0.333-0.333-0.333h-2.5c-0.183 0-0.333 0.15-0.333 0.333v8.25c0 0.738 0.596 1.333 1.333 1.333h28.5c0.738 0 1.333-0.596 1.333-1.333v-8.25c0-0.183-0.15-0.333-0.333-0.333z"></path>
</symbol>
<symbol id="icon-twitter" viewBox="0 0 32 32">
<title>twitter</title>
<path d="M16 0c-8.822 0-16 7.178-16 16s7.178 16 16 16c8.822 0 16-7.178 16-16s-7.177-16-16-16zM23.138 12.338c0.007 0.159 0.011 0.318 0.011 0.478 0 4.867-3.703 10.476-10.479 10.476-2.080 0-4.016-0.608-5.645-1.653 0.288 0.034 0.581 0.052 0.878 0.052 1.726 0 3.313-0.589 4.574-1.576-1.611-0.030-2.972-1.094-3.44-2.558 0.224 0.042 0.456 0.066 0.692 0.066 0.336 0 0.662-0.044 0.971-0.128-1.685-0.338-2.954-1.826-2.954-3.611 0-0.015 0-0.032 0.001-0.046 0.496 0.275 1.064 0.441 1.667 0.46-0.987-0.659-1.638-1.787-1.638-3.065 0-0.675 0.181-1.308 0.498-1.852 1.816 2.229 4.53 3.694 7.59 3.849-0.063-0.27-0.095-0.55-0.095-0.84 0-2.033 1.649-3.683 3.682-3.683 1.060 0 2.015 0.447 2.688 1.163 0.84-0.165 1.626-0.47 2.339-0.894-0.277 0.86-0.859 1.582-1.622 2.038 0.746-0.089 1.457-0.286 2.115-0.579-0.491 0.737-1.116 1.386-1.835 1.904z"></path>
</symbol>
<symbol id="icon-search" viewBox="0 0 32 32">
<title>search</title>
<path d="M22.489 20.349l8.070 8.070c0.284 0.284 0.443 0.669 0.443 1.070s-0.16 0.786-0.444 1.070c-0.284 0.284-0.669 0.443-1.070 0.443s-0.786-0.16-1.070-0.444l-8.070-8.070c-2.413 1.869-5.446 2.748-8.484 2.459s-5.851-1.724-7.868-4.014c-2.017-2.29-3.086-5.262-2.99-8.312s1.351-5.949 3.509-8.106c2.158-2.158 5.056-3.412 8.106-3.509s6.022 0.973 8.312 2.99c2.29 2.017 3.725 4.831 4.014 7.868s-0.591 6.071-2.459 8.484h0.001zM13.001 22c2.387 0 4.676-0.948 6.364-2.636s2.636-3.977 2.636-6.364-0.948-4.676-2.636-6.364c-1.688-1.688-3.977-2.636-6.364-2.636s-4.676 0.948-6.364 2.636c-1.688 1.688-2.636 3.977-2.636 6.364s0.948 4.676 2.636 6.364c1.688 1.688 3.977 2.636 6.364 2.636z"></path>
</symbol>
<symbol id="icon-save" viewBox="0 0 32 32">
<title>save</title>
<path d="M30.996 7.334l-5.992-5.767c-0.643-0.619-1.515-0.967-2.424-0.967h-19.151c-1.894 0-3.429 1.477-3.429 3.3v24.2c0 1.823 1.535 3.3 3.429 3.3h25.143c1.894 0 3.429-1.477 3.429-3.3v-18.433c0-0.875-0.361-1.715-1.004-2.333zM19.429 3.9v5.5h-9.143v-5.5h9.143zM28.143 28.1h-24.286c-0.114 0-0.223-0.043-0.303-0.121s-0.126-0.182-0.126-0.292v-23.375c0-0.109 0.045-0.214 0.126-0.292s0.189-0.121 0.303-0.121h3v7.15c0 0.911 0.768 1.65 1.714 1.65h12.571c0.947 0 1.714-0.739 1.714-1.65v-6.883l5.589 5.379c0.040 0.038 0.071 0.084 0.093 0.134s0.033 0.104 0.033 0.158v17.85c0 0.109-0.045 0.214-0.125 0.292s-0.189 0.121-0.303 0.121zM16 14.35c-3.466 0-6.286 2.714-6.286 6.050s2.82 6.050 6.286 6.050 6.286-2.714 6.286-6.050c0-3.336-2.82-6.050-6.286-6.050zM16 23.15c-1.575 0-2.857-1.234-2.857-2.75s1.282-2.75 2.857-2.75 2.857 1.234 2.857 2.75c0 1.516-1.282 2.75-2.857 2.75z"></path>
</symbol>
<symbol id="icon-question" viewBox="0 0 32 32">
<title>question</title>
<path d="M16 32c-8.847 0-16-7.153-16-16s7.153-16 16-16c8.847 0 16 7.153 16 16s-7.153 16-16 16zM16 1.882c-7.812 0-14.118 6.306-14.118 14.118s6.306 14.118 14.118 14.118c7.812 0 14.118-6.306 14.118-14.118s-6.306-14.118-14.118-14.118z"></path>
<path d="M9.067 10.154c0.4-0.858 0.8-1.502 1.6-2.038 0.667-0.536 1.467-0.965 2.533-1.287s2.133-0.429 3.333-0.429c0.933 0 1.867 0.107 2.667 0.322s1.6 0.536 2.267 0.965c0.667 0.429 1.2 0.965 1.467 1.609 0.4 0.644 0.533 1.394 0.533 2.145 0 1.073-0.267 1.931-0.8 2.682s-1.333 1.394-2.133 2.145l-1.733 1.394c-0.4 0.322-0.8 0.644-0.933 0.965-0.267 0.322-0.4 0.751-0.4 1.18-0.133 0.429-0.133 0.751-0.133 1.609h-2.133c0-0.858 0-1.18 0.133-1.823 0.133-0.536 0.4-1.073 0.667-1.609 0.267-0.429 0.667-0.858 1.2-1.287s1.2-0.858 1.867-1.502c0.667-0.536 1.2-1.073 1.6-1.609s0.667-1.287 0.667-1.931c0-0.536-0.133-1.073-0.4-1.502s-0.667-0.858-1.067-1.18c-0.4-0.322-0.933-0.536-1.6-0.751s-1.2-0.322-1.867-0.322c-0.933 0-1.733 0.107-2.4 0.429-0.667 0.215-1.333 0.644-1.733 1.073s-0.8 0.965-1.067 1.609c-0.267 0.644-0.533 0.965-0.533 1.716h-2.133c0-0.965 0.133-1.716 0.533-2.574zM17.333 23.455v2.145h-2.667v-2.145h2.667z"></path>
</symbol>
<symbol id="icon-point" viewBox="0 0 20 32">
<title>point</title>
<path d="M10 0c-5.524 0-10 4.461-10 9.986 0 9.554 10 22.014 10 22.014s10-12.462 10-22.014c0-5.523-4.476-9.986-10-9.986zM10 15.512c-1.432 0-2.806-0.569-3.818-1.583s-1.582-2.388-1.582-3.821c0-1.433 0.569-2.807 1.582-3.821s2.386-1.583 3.818-1.583 2.806 0.569 3.818 1.583c1.013 1.013 1.582 2.388 1.582 3.821s-0.569 2.807-1.582 3.821c-1.013 1.013-2.386 1.583-3.818 1.583z"></path>
</symbol>
</defs>
</svg>
