<svg width="15" height="15" viewBox="0 0 15 15" fill="none" xmlns="http://www.w3.org/2000/svg">
<path d="M5.3125 3.70521H6.75586V10.3126C6.75586 10.3986 6.82617 10.4689 6.91211 10.4689H8.08398C8.16992 10.4689 8.24023 10.3986 8.24023 10.3126V3.70521H9.6875C9.81836 3.70521 9.89062 3.55482 9.81055 3.45326L7.62305 0.68373C7.60843 0.665055 7.58976 0.649951 7.56844 0.639564C7.54712 0.629177 7.52371 0.623779 7.5 0.623779C7.47629 0.623779 7.45288 0.629177 7.43156 0.639564C7.41024 0.649951 7.39157 0.665055 7.37695 0.68373L5.18945 3.45131C5.10938 3.55482 5.18164 3.70521 5.3125 3.70521ZM14.6484 9.7267H13.4766C13.3906 9.7267 13.3203 9.79701 13.3203 9.88295V12.8908H1.67969V9.88295C1.67969 9.79701 1.60938 9.7267 1.52344 9.7267H0.351562C0.265625 9.7267 0.195312 9.79701 0.195312 9.88295V13.7501C0.195312 14.0958 0.474609 14.3751 0.820312 14.3751H14.1797C14.5254 14.3751 14.8047 14.0958 14.8047 13.7501V9.88295C14.8047 9.79701 14.7344 9.7267 14.6484 9.7267Z" fill="white"/>
</svg>
