<svg width="30" height="30" viewBox="0 0 30 30" fill="none" xmlns="http://www.w3.org/2000/svg">
<path d="M15 0C6.7155 0 0 6.7155 0 15C0 23.2845 6.7155 30 15 30C23.2845 30 30 23.2845 30 15C30 6.7155 23.2845 0 15 0ZM5.259 9.75H7.4685C8.0325 9.75 8.2455 9.996 8.4585 10.608C9.5385 13.758 11.3625 16.512 12.111 16.512C12.393 16.512 12.522 16.3815 12.522 15.6675V12.4125C12.4395 10.914 11.643 10.7895 11.643 10.257C11.643 10.0095 11.853 9.75 12.2055 9.75H15.6795C16.1475 9.75 16.3035 9.999 16.3035 10.5615V14.9415C16.3035 15.4095 16.5135 15.5745 16.656 15.5745C16.9365 15.5745 17.169 15.4095 17.6835 14.895C19.2765 13.1145 20.403 10.374 20.403 10.374C20.5425 10.0455 20.8005 9.75 21.363 9.75H23.5725C24.24 9.75 24.3825 10.0935 24.243 10.5615C23.9625 11.85 21.267 15.645 21.267 15.645C21.033 16.02 20.9385 16.2075 21.267 16.629C21.501 16.9575 22.275 17.6115 22.7895 18.219C23.739 19.2885 24.4545 20.1885 24.6525 20.8095C24.8355 21.432 24.5205 21.75 23.8875 21.75H21.6795C20.8365 21.75 20.589 21.078 19.0905 19.5795C17.778 18.315 17.217 18.15 16.89 18.15C16.4445 18.15 16.3095 18.276 16.3095 18.9075V20.892C16.3095 21.435 16.1355 21.75 14.73 21.75C12.3885 21.75 9.816 20.3265 7.989 17.7045C5.25 13.8645 4.5 10.959 4.5 10.374C4.5 10.0455 4.6275 9.75 5.259 9.75Z" fill="black"/>
</svg>
