<svg width="32" height="32" viewBox="0 0 32 32" fill="none" xmlns="http://www.w3.org/2000/svg">
<path d="M19.9062 13.8437H16.2187V9.65615C16.2187 9.51865 16.1062 9.40615 15.9687 9.40615H14.0937C13.9562 9.40615 13.8437 9.51865 13.8437 9.65615V13.8437H10.1562C10.0187 13.8437 9.90615 13.9562 9.90615 14.0937V15.9687C9.90615 16.1062 10.0187 16.2187 10.1562 16.2187H13.8437V20.4062C13.8437 20.5437 13.9562 20.6562 14.0937 20.6562H15.9687C16.1062 20.6562 16.2187 20.5437 16.2187 20.4062V16.2187H19.9062C20.0437 16.2187 20.1562 16.1062 20.1562 15.9687V14.0937C20.1562 13.9562 20.0437 13.8437 19.9062 13.8437ZM28.7812 27.0937L24.2187 22.5312C28.0343 17.878 27.7687 10.9843 23.4062 6.6249C18.7812 1.99678 11.2687 1.99678 6.6249 6.6249C1.99678 11.2687 1.99678 18.7812 6.6249 23.4062C10.9843 27.7687 17.878 28.0343 22.5312 24.2187L27.0937 28.7812C27.1937 28.8687 27.353 28.8687 27.4374 28.7812L28.7812 27.4374C28.8687 27.353 28.8687 27.1937 28.7812 27.0937ZM21.7499 21.7499C18.0374 25.4593 12.0249 25.4593 8.3124 21.7499C4.60303 18.0374 4.60303 12.0249 8.3124 8.3124C12.0249 4.60303 18.0374 4.60303 21.7499 8.3124C25.4593 12.0249 25.4593 18.0374 21.7499 21.7499Z" fill="white"/>
</svg>
