<svg width="16" height="14" viewBox="0 0 16 14" fill="none" xmlns="http://www.w3.org/2000/svg">
<path d="M11.175 9.43047L12.0639 8.55547C12.2028 8.41875 12.4444 8.51445 12.4444 8.71133V12.6871C12.4444 13.4117 11.8472 13.9996 11.1111 13.9996H1.33333C0.597222 13.9996 0 13.4117 0 12.6871V3.06211C0 2.3375 0.597222 1.74961 1.33333 1.74961H8.93056C9.12778 1.74961 9.22778 1.98477 9.08889 2.12422L8.2 2.99922C8.15833 3.04023 8.10278 3.06211 8.04167 3.06211H1.33333V12.6871H11.1111V9.58359C11.1111 9.52617 11.1333 9.47148 11.175 9.43047ZM15.525 3.9125L8.23055 11.093L5.71944 11.3664C4.99167 11.4457 4.37222 10.8414 4.45278 10.1195L4.73056 7.64766L12.025 0.467187C12.6611 -0.158984 13.6889 -0.158984 14.3222 0.467187L15.5222 1.64844C16.1583 2.27461 16.1583 3.28906 15.525 3.9125ZM12.7806 4.75742L11.1667 3.16875L6.00556 8.25195L5.80278 10.0375L7.61667 9.83789L12.7806 4.75742ZM14.5806 2.57812L13.3806 1.39688C13.2667 1.28477 13.0806 1.28477 12.9694 1.39688L12.1111 2.2418L13.725 3.83047L14.5833 2.98555C14.6944 2.8707 14.6944 2.69023 14.5806 2.57812Z" fill="white"/>
</svg>
