<svg width="21" height="21" viewBox="0 0 21 21" fill="none" xmlns="http://www.w3.org/2000/svg">
<path d="M20.6089 2.71403H13.5739V4.01603H15.6476V6.07578H13.5739V6.73203H15.6476V8.79441H13.5739V9.46903H15.6476V11.4194H13.5739V12.2008H15.6476V14.1555H13.5739V14.9369H15.6476V16.903H13.5739V18.3372H20.6089C20.72 18.3039 20.8127 18.1727 20.8871 17.9452C20.9615 17.7159 21 17.5295 21 17.3887V2.95203C21 2.84003 20.9615 2.77266 20.8871 2.74903C20.7966 2.72384 20.7028 2.71205 20.6089 2.71403ZM19.6963 16.9013H16.3214V14.9369H19.6963V16.903V16.9013ZM19.6963 14.1555H16.3214V12.1999H19.6963V14.1555ZM19.6963 11.4185H16.3214V9.47691H19.6963V11.4203V11.4185ZM19.6963 8.79353H16.3214V6.73378H19.6963V8.79441V8.79353ZM19.6963 6.06441H16.3214V4.01691H19.6963V6.07753V6.06441ZM0 2.38941V18.6653L12.39 20.8082V0.191406L0 2.39641V2.38941ZM7.34387 14.7015C7.29662 14.5738 7.07438 14.0313 6.68062 13.0714C6.45235 12.5106 6.2193 11.9517 5.9815 11.3949H5.95962L4.6305 14.558L2.85425 14.4382L4.96125 10.5007L3.03187 6.56316L4.84312 6.46778L6.04012 9.54866H6.06375L7.41563 6.32778L9.28725 6.20966L7.05863 10.4709L9.3555 14.8179L7.34387 14.6998V14.7015Z" fill="white"/>
</svg>
