<svg width="16" height="13" viewBox="0 0 16 13" fill="none" xmlns="http://www.w3.org/2000/svg">
<path d="M5.99935 2.99992H3.33268V5.66659H4.66602V4.33325H5.99935V2.99992ZM12.666 5.66659H11.3327V6.99992H9.99935V8.33325H12.666V5.66659ZM13.9993 9.66659H1.99935V1.66659H13.9993V9.66659ZM13.9993 0.333252H1.99935C1.25935 0.333252 0.666016 0.926585 0.666016 1.66659V9.66659C0.666016 10.0202 0.806491 10.3593 1.05654 10.6094C1.30659 10.8594 1.64573 10.9999 1.99935 10.9999H6.66602V12.3333H5.33268V13.6666H10.666V12.3333H9.33268V10.9999H13.9993C14.353 10.9999 14.6921 10.8594 14.9422 10.6094C15.1922 10.3593 15.3327 10.0202 15.3327 9.66659V1.66659C15.3327 1.31296 15.1922 0.973825 14.9422 0.723776C14.6921 0.473728 14.353 0.333252 13.9993 0.333252Z" fill="#22292A"/>
</svg>
