<svg width="25" height="25" viewBox="0 0 25 25" fill="none" xmlns="http://www.w3.org/2000/svg">
<path d="M24.6526 20.7885L21.1279 24.285C20.6076 24.8185 19.918 24.9993 19.2463 25.0001C16.2761 24.9111 13.4685 23.4521 11.1634 21.954C7.37959 19.2013 3.9078 15.788 1.72884 11.6633C0.893129 9.93364 -0.0874546 7.72674 0.00623292 5.79614C0.0145871 5.06989 0.210295 4.35712 0.721775 3.88899L4.24648 0.366057C4.9784 -0.256506 5.68621 -0.0412559 6.15459 0.683911L8.99023 6.06104C9.28869 6.69806 9.11748 7.3806 8.67219 7.83578L7.37361 9.1337C7.29344 9.24351 7.2424 9.36851 7.24111 9.50456C7.73907 11.4321 9.24763 13.2087 10.5803 14.4313C11.9129 15.654 13.3454 17.3105 15.2048 17.7026C15.4347 17.7667 15.7162 17.7892 15.8806 17.6364L17.3912 16.1001C17.912 15.7054 18.6639 15.5125 19.2198 15.8352H19.2463L24.3611 18.8548C25.1119 19.3255 25.1902 20.2351 24.6526 20.7885Z" fill="#00BF9C"/>
</svg>
