<svg width="29" height="30" viewBox="0 0 29 30" fill="none" xmlns="http://www.w3.org/2000/svg">
<path d="M21.2647 13.9163L10.9744 7.66028C10.0506 7.14577 8.8871 7.80645 8.8871 8.8881V21.0494C8.8871 22.1252 10.0448 22.7917 10.9744 22.2772L21.2647 16.372C22.2236 15.8399 22.2236 14.4542 21.2647 13.9163ZM29 14.9688C29 6.95867 22.5101 0.46875 14.5 0.46875C6.48992 0.46875 0 6.95867 0 14.9688C0 22.9788 6.48992 29.4688 14.5 29.4688C22.5101 29.4688 29 22.9788 29 14.9688ZM2.80645 14.9688C2.80645 8.50806 8.03931 3.2752 14.5 3.2752C20.9607 3.2752 26.1935 8.50806 26.1935 14.9688C26.1935 21.4294 20.9607 26.6623 14.5 26.6623C8.03931 26.6623 2.80645 21.4294 2.80645 14.9688Z" fill="#868686"/>
</svg>
