<svg width="40" height="64" viewBox="0 0 40 64" fill="none" xmlns="http://www.w3.org/2000/svg">
<path d="M20 0C8.952 0 0 8.92157 0 19.9725C0 39.0804 20 64 20 64C20 64 40 39.0764 40 19.9725C40 8.92558 31.048 0 20 0ZM20 31.0234C17.1357 31.0234 14.3886 29.8848 12.3632 27.8582C10.3379 25.8315 9.2 23.0828 9.2 20.2166C9.2 17.3505 10.3379 14.6018 12.3632 12.5751C14.3886 10.5484 17.1357 9.40988 20 9.40988C22.8643 9.40988 25.6114 10.5484 27.6368 12.5751C29.6621 14.6018 30.8 17.3505 30.8 20.2166C30.8 23.0828 29.6621 25.8315 27.6368 27.8582C25.6114 29.8848 22.8643 31.0234 20 31.0234Z" fill="#319CD6"/>
</svg>
