<svg width="15" height="15" viewBox="0 0 15 15" fill="none" xmlns="http://www.w3.org/2000/svg">
<path d="M7.5 15C3.35294 15 0 11.6471 0 7.5C0 3.35294 3.35294 0 7.5 0C11.6471 0 15 3.35294 15 7.5C15 11.6471 11.6471 15 7.5 15ZM7.5 0.882353C3.83824 0.882353 0.882353 3.83824 0.882353 7.5C0.882353 11.1618 3.83824 14.1176 7.5 14.1176C11.1618 14.1176 14.1176 11.1618 14.1176 7.5C14.1176 3.83824 11.1618 0.882353 7.5 0.882353Z" fill="#818181"/>
<path d="M4.25 4.75978C4.4375 4.35754 4.625 4.05587 5 3.80447C5.3125 3.55307 5.6875 3.35196 6.1875 3.20112C6.6875 3.05028 7.1875 3 7.75 3C8.1875 3 8.625 3.05028 9 3.15084C9.375 3.2514 9.75 3.40223 10.0625 3.60335C10.375 3.80447 10.625 4.05587 10.75 4.35754C10.9375 4.65922 11 5.01117 11 5.36313C11 5.86592 10.875 6.26816 10.625 6.62011C10.375 6.97207 10 7.27374 9.625 7.6257L8.8125 8.27933C8.625 8.43017 8.4375 8.58101 8.375 8.73184C8.25 8.88268 8.1875 9.0838 8.1875 9.28492C8.125 9.48603 8.125 9.63687 8.125 10.0391H7.125C7.125 9.63687 7.125 9.48603 7.1875 9.18436C7.25 8.93296 7.375 8.68156 7.5 8.43017C7.625 8.22905 7.8125 8.02793 8.0625 7.82682C8.3125 7.6257 8.625 7.42458 8.9375 7.1229C9.25 6.87151 9.5 6.62011 9.6875 6.36871C9.875 6.11732 10 5.76536 10 5.46369C10 5.21229 9.9375 4.96089 9.8125 4.75978C9.6875 4.55866 9.5 4.35754 9.3125 4.2067C9.125 4.05587 8.875 3.95531 8.5625 3.85475C8.25 3.75419 8 3.70391 7.6875 3.70391C7.25 3.70391 6.875 3.75419 6.5625 3.90503C6.25 4.00559 5.9375 4.2067 5.75 4.40782C5.5625 4.60894 5.375 4.86033 5.25 5.16201C5.125 5.46369 5 5.61452 5 5.96648H4C4 5.51397 4.0625 5.16201 4.25 4.75978ZM8.125 10.9944V12H6.875V10.9944H8.125Z" fill="#818181"/>
</svg>
